<svg width="14" height="18" viewBox="0 0 14 18" fill="none" xmlns="http://www.w3.org/2000/svg">
<path d="M7.00095 0C3.14067 0 0 3.13973 0 6.99905C0 8.86338 0.725281 10.6169 2.04234 11.9397L6.65062 17.6387C6.76613 17.7817 6.94035 17.865 7.12498 17.865C7.12688 17.865 7.12972 17.865 7.13161 17.865C7.31814 17.8631 7.4933 17.776 7.60693 17.6283L12.2493 11.6206C13.3779 10.3405 14 8.70053 14 6.99905C14.0009 3.13973 10.8612 0 7.00095 0ZM11.3242 10.8271C11.3148 10.8375 11.3062 10.848 11.2977 10.8593L7.11457 16.2724L2.97119 11.1481C2.95793 11.1311 2.94278 11.115 2.92669 11.0989C1.82646 10.0043 1.21953 8.54809 1.21953 7C1.21953 3.81293 3.81293 1.22048 7 1.22048C10.1871 1.22048 12.7805 3.81293 12.7805 7C12.7814 8.4089 12.2635 9.76857 11.3242 10.8271Z" fill="white"/>
<path d="M7.00093 4.453C5.78898 4.453 4.80237 5.43961 4.80237 6.65157C4.80237 7.86353 5.78898 8.84919 7.00093 8.84919C8.21289 8.84919 9.19855 7.86353 9.19855 6.65157C9.1995 5.43961 8.21289 4.453 7.00093 4.453ZM7.00093 7.62966C6.46123 7.62966 6.02285 7.19032 6.02285 6.65157C6.02285 6.11187 6.46218 5.67253 7.00093 5.67253C7.54063 5.67253 7.97902 6.11187 7.97902 6.65157C7.97902 7.19127 7.54063 7.62966 7.00093 7.62966Z" fill="white"/>
</svg>
