<svg width="14" height="14" viewBox="0 0 14 14" fill="none" xmlns="http://www.w3.org/2000/svg">
<path d="M12.992 4.67824C12.9257 4.06547 12.6315 3.49999 12.1679 3.09386C11.7043 2.68773 11.105 2.47059 10.4889 2.48547H9.77796C9.656 1.7893 9.29247 1.15843 8.7513 0.703825C8.21014 0.249221 7.526 0 6.81923 0C6.11245 0 5.42832 0.249221 4.88715 0.703825C4.34598 1.15843 3.98245 1.7893 3.86049 2.48547H3.13959C2.52342 2.47059 1.92415 2.68773 1.46053 3.09386C0.996909 3.49999 0.70278 4.06547 0.636429 4.67824L0.0106401 11.3667C-0.02073 11.6947 0.0174541 12.0257 0.122698 12.338C0.227943 12.6503 0.39788 12.9368 0.62141 13.179C0.861239 13.4387 1.15239 13.6457 1.47641 13.7871C1.80044 13.9284 2.15028 14.0009 2.50378 14H11.1347C11.4882 14.0009 11.838 13.9284 12.162 13.7871C12.4861 13.6457 12.7772 13.4387 13.017 13.179C13.2406 12.9368 13.4105 12.6503 13.5158 12.338C13.621 12.0257 13.6592 11.6947 13.6278 11.3667L12.992 4.67824ZM6.81923 0.983577C7.26206 0.985015 7.69193 1.1332 8.04159 1.40495C8.39124 1.67671 8.64096 2.05669 8.75166 2.48547H4.88679C4.9975 2.05669 5.24721 1.67671 5.59686 1.40495C5.94652 1.1332 6.37639 0.985015 6.81923 0.983577ZM12.2761 12.4981C12.1314 12.6566 11.955 12.7831 11.7584 12.8693C11.5618 12.9555 11.3493 12.9996 11.1347 12.9987H2.50378C2.28911 12.9996 2.07663 12.9555 1.88004 12.8693C1.68344 12.7831 1.50709 12.6566 1.36234 12.4981C1.23313 12.3593 1.13467 12.1948 1.07342 12.0154C1.01217 11.836 0.989498 11.6456 1.0069 11.4568L1.6477 4.77336C1.68904 4.4106 1.86554 4.07673 2.14202 3.83828C2.41851 3.59983 2.77469 3.47431 3.13959 3.48673H3.81544V4.488C3.81544 4.62077 3.86818 4.74811 3.96207 4.842C4.05596 4.93588 4.18329 4.98863 4.31607 4.98863C4.44884 4.98863 4.57618 4.93588 4.67007 4.842C4.76396 4.74811 4.8167 4.62077 4.8167 4.488V3.48673H8.82175V4.488C8.82175 4.62077 8.8745 4.74811 8.96838 4.842C9.06227 4.93588 9.18961 4.98863 9.32238 4.98863C9.45516 4.98863 9.5825 4.93588 9.67638 4.842C9.77027 4.74811 9.82301 4.62077 9.82301 4.488V3.48673H10.4989C10.8655 3.47173 11.2241 3.59608 11.5028 3.83478C11.7814 4.07347 11.9593 4.40881 12.0008 4.77336L12.6416 11.4618C12.6569 11.6505 12.6323 11.8403 12.5693 12.0189C12.5064 12.1975 12.4065 12.3608 12.2761 12.4981Z" fill="white"/>
</svg>
